<svg width="1024" height="1024" viewBox="0 0 1024 1024" fill="none" xmlns="http://www.w3.org/2000/svg"><path d="M928 254.3C897.4 267.5 864.1 277 829.8 280.7C865.411 259.544 892.079 226.12 904.8 186.7C871.383 206.579 834.775 220.518 796.6 227.9C780.644 210.843 761.347 197.254 739.91 187.981C718.473 178.708 695.357 173.948 672 174C577.5 174 501.5 250.6 501.5 344.6C501.5 357.8 503.1 371 505.7 383.7C364.2 376.3 238 308.7 154.1 205.2C138.813 231.312 130.801 261.043 130.9 291.3C130.9 350.5 161 402.7 206.9 433.4C179.85 432.335 153.434 424.9 129.8 411.7V413.8C129.8 496.7 188.4 565.4 266.5 581.2C251.836 585.009 236.751 586.958 221.6 587C210.5 587 200 585.9 189.4 584.4C211 652 273.9 701.1 348.8 702.7C290.2 748.6 216.8 775.6 137.1 775.6C122.8 775.6 109.6 775.1 95.9 773.5C171.5 822 261.2 850 357.8 850C671.4 850 843 590.2 843 364.7C843 357.3 843 349.9 842.5 342.5C875.7 318.2 904.8 288.1 928 254.3Z" fill="#eaeaea"/></svg>
